<svg xmlns="http://www.w3.org/2000/svg" width="96" height="62" viewBox="0 0 96 62" fill="none"><g clip-path="url(#clip0_95_2785)"><path d="M34.2857 0.0391321C40.6828 0.343629 45.3993 3.16359 47.52 9.20706C49.2355 14.0974 49.2866 21.788 47.8454 26.7542C45.7908 33.8322 40.8586 36.6827 33.5638 36.9114C29.9832 37.0239 26.3776 36.8796 22.7969 36.9897C22.5687 36.997 22.3381 36.9811 22.1099 36.9872L22.1174 36.8931C23.5325 34.4118 24.783 31.7692 25.1844 28.9211C25.0822 28.8245 24.8528 29.2207 24.7904 29.288C23.1098 31.0917 20.4206 31.5748 18.1328 30.6392C14.1905 29.0263 13.2355 23.9868 16.0619 20.9357L26.3913 11.1796L26.4848 11.1637C27.7353 12.5578 28.9097 14.024 30.1914 15.3961C31.6601 16.9699 33.2409 18.4386 34.7221 19.9978C36.9351 22.3261 39.082 24.5028 37.3552 27.8755C35.6584 31.1895 31.0092 32.1948 28.1143 29.7331C27.9036 29.5533 27.7415 29.3369 27.5508 29.1449C27.5109 29.1045 27.4959 29.0679 27.4273 29.0837C27.4759 30.6099 27.9884 32.1458 28.6728 33.5045L34.2234 33.5265C37.6582 33.3186 40.6691 31.9282 42.5305 29.0409C45.0851 25.0764 45.3182 18.4508 44.6263 13.9164C43.7099 7.89858 40.5307 3.72611 33.974 3.41917L26.4274 3.40327L26.3888 0.040355C28.9945 0.133294 31.69 -0.0831559 34.2845 0.040355L34.2857 0.0391321Z" fill="white"></path><path d="M0 5.66071C0.0573507 5.61301 0.0685714 5.54209 0.0785455 5.47361C0.619636 1.8441 4.35366 -0.514836 7.96925 0.55763C9.93662 1.14094 11.6945 3.00706 11.9688 5.02848C11.9763 5.08351 11.9875 5.15199 12.0511 5.08962C12.0873 5.05416 12.192 4.50998 12.2319 4.39013C13.4475 0.778971 17.5231 -0.802213 20.9317 1.08958C24.5847 3.11834 25.0735 8.00007 22.3381 10.9961C20.9903 12.4721 19.1801 13.7916 17.765 15.231C15.7265 17.1986 13.5821 19.0586 11.5761 21.0592C11.5399 21.091 11.4963 21.102 11.4489 21.102C11.3916 21.102 10.8742 20.4233 10.7645 20.3426C8.51782 17.3869 5.83356 14.803 3.34504 12.0539C2.16686 10.7528 0.95626 9.40027 0.271792 7.77384L0 6.92027V5.65704L0 5.66071Z" fill="#EA2229"></path><path d="M96 0.731282V4.1529C95.6397 4.10154 95.2869 3.98047 94.929 3.91933C91.5516 3.34824 87.0321 3.54757 86.8139 7.79708C86.7254 9.52379 86.8862 11.3214 86.8127 13.0555L86.8227 13.108C86.8526 13.1142 86.9049 13.1557 86.9199 13.1557H94.7532V16.109L86.9623 16.1298C86.9187 16.1249 86.8164 16.2117 86.8164 16.2313V37.0679C86.7404 37.0863 86.6693 37.1046 86.5895 37.1107C85.7143 37.178 84.2668 37.1694 83.3854 37.1107C83.3342 37.1071 83.1709 37.0985 83.1572 37.041V7.18686C83.4602 1.28892 88.7501 0.0220115 93.8593 0.405996C94.5775 0.459803 95.2981 0.578422 96 0.731282Z" fill="white"></path><path d="M58.0152 62H56.8096C55.7112 61.7493 55.3409 60.7894 55.2723 59.7793C55.1726 58.3191 55.2848 56.3907 57.1636 56.2561C59.3991 56.0959 59.6484 57.9131 59.5549 59.6594C59.5088 60.5118 59.2931 61.4277 58.459 61.8447L58.0152 62ZM57.5489 56.7563C56.3695 56.7221 55.9356 57.4056 55.8545 58.4769C55.7423 59.9578 55.7935 61.797 57.8257 61.5084C59.1447 61.3213 59.0824 59.0663 58.9265 58.1125C58.8044 57.369 58.373 56.7795 57.5489 56.7551V56.7563Z" fill="white"></path><path d="M41.6004 62C39.9722 61.616 39.7901 59.6777 39.9846 58.3191C40.2439 56.5142 41.6204 55.899 43.3446 56.3992C43.8533 56.5472 43.8284 56.5692 43.8022 57.1121C42.8709 56.7734 41.578 56.4445 40.9247 57.4081C40.2988 58.3326 40.3025 60.8749 41.487 61.3971C41.8248 61.5463 42.4881 61.5451 42.8621 61.5072C42.9519 61.4974 43.3858 61.4069 43.3858 61.3286V59.5163H42.2849C42.1914 59.5163 42.1914 58.9868 42.2849 58.9868H43.9057C43.9057 58.9868 43.968 59.0431 43.968 59.048V61.6551C43.968 61.7566 43.7548 61.8153 43.6775 61.8594L43.0541 62.0024H41.5992L41.6004 62Z" fill="white"></path><path d="M73.1433 62C72.4438 61.8312 71.8828 61.3837 71.7407 60.6658L71.7282 56.4371C71.702 56.2195 72.2456 56.2329 72.2693 56.4408V60.3088C72.3703 61.3103 73.1034 61.5916 74.0384 61.5121C74.6132 61.4632 75.2216 60.985 75.2216 60.3907V56.3576C75.2216 56.2439 75.7615 56.3099 75.7615 56.3369V60.634C75.7615 60.6927 75.6044 61.0963 75.562 61.1721C75.3139 61.6185 74.8264 61.863 74.3476 61.9988H73.142L73.1433 62Z" fill="white"></path><path d="M32.332 62H32.0416V56.365C32.0603 56.2757 32.6749 56.2133 32.625 56.4787V61.819L32.5839 61.9425L32.332 62.0012V62Z" fill="white"></path><path d="M54.2338 0.711718C54.2375 0.689706 54.2749 0.648128 54.2824 0.616333L65.8922 0.607773C70.3792 0.745958 74.8725 2.0789 76.4783 6.60722C77.8223 10.3994 77.0369 15.0891 73.5123 17.4505C73.248 17.6278 72.9525 17.7525 72.6969 17.914C72.657 17.9396 72.586 17.9604 72.6022 18.024C73.8427 18.4728 74.9735 19.1601 75.8649 20.1225C78.9781 23.4842 79.1476 29.9752 76.3599 33.5632C74.1806 36.3672 70.348 37.3749 66.8871 37.5179C62.7603 37.6892 58.5151 37.3895 54.3759 37.5204C54.3335 37.529 54.2325 37.491 54.2325 37.4568V0.711718H54.2338ZM57.9329 16.6189C58.2246 16.6801 58.5276 16.6605 58.8256 16.6593C61.2979 16.6483 63.8475 16.6911 66.3073 16.6189C69.9852 16.5113 72.8154 15.1551 73.0622 11.182C73.2954 7.42777 71.9713 4.76679 67.9643 4.15779C64.8386 3.68332 61.334 4.1688 58.1598 3.98781L57.9329 4.03061V16.6177V16.6189ZM57.9329 20.0613V34.0743C57.9329 34.1086 58.0339 34.1465 58.0763 34.1379C63.9061 33.6989 73.8801 36.2975 74.309 27.763C74.4262 25.431 74.0821 22.737 71.9925 21.3123C70.444 20.2558 68.5889 20.1127 66.7624 20.0442C63.8762 19.9366 60.97 20.0381 58.0763 20.0002C58.0289 19.9965 57.9466 20.0185 57.9329 20.0638V20.0613Z" fill="white"></path><path d="M52.2801 47.0087L52.1878 47.0601L50.4287 50.8351C50.3302 50.9709 49.9275 50.9757 49.8614 50.785L48.1347 47.1017L48.0411 47.0503L48.0823 51.674C48.0823 51.8305 47.6347 51.7975 47.5587 51.7388L47.5375 46.1698C47.6123 46.0769 48.202 46.0647 48.2843 46.22L50.0684 50.0525L50.1806 50.1454L52.0532 46.1955C52.1093 46.0634 52.7215 46.094 52.7614 46.1515L52.7801 51.674C52.785 51.8354 52.2963 51.7914 52.2577 51.7376C52.1953 50.1625 52.2726 48.5838 52.2814 47.0099L52.2801 47.0087Z" fill="white"></path><path d="M66.452 56.3992C66.4557 56.3858 66.5168 56.3271 66.5355 56.3185C66.6427 56.2696 67.9967 56.283 68.2198 56.2953C69.3531 56.3601 70.1997 56.7612 70.0675 58.0281C70.0177 58.5087 69.7908 58.6322 69.489 58.9269C69.3631 59.0492 69.5763 59.0468 69.691 59.1311C70.4254 59.6606 70.4827 60.9716 69.797 61.5512C69.6224 61.6992 69.0589 61.9597 68.842 61.9597H66.5143C66.5143 61.9597 66.452 61.9034 66.452 61.8985V56.3992ZM67.0541 56.826C67.0404 56.8468 66.9918 56.8761 66.9918 56.8871V58.7202C66.9918 58.7202 67.0491 58.7814 67.0541 58.7814H68.7584C68.9405 58.7814 69.2559 58.5393 69.3544 58.3876C69.5688 58.0562 69.5526 57.3567 69.2372 57.0889C69.1337 57.0021 68.7584 56.8248 68.6338 56.8248H67.0541V56.826ZM67.0541 59.2705C67.0404 59.2913 66.9918 59.3207 66.9918 59.3317V61.4094C66.9918 61.4094 67.0491 61.4705 67.0541 61.4705H68.7584C68.8258 61.4705 69.1985 61.3299 69.2734 61.2822C69.8543 60.9116 69.8631 59.6839 69.1686 59.3977C69.1125 59.3745 68.7896 59.2705 68.7584 59.2705H67.0541Z" fill="white"></path><path d="M21.2783 56.3992C21.327 56.2427 21.6125 56.3393 21.7135 56.3405C22.6236 56.3527 23.9913 56.1008 24.6209 56.9128C24.9775 57.3726 24.9986 58.2042 24.6209 58.6579C24.5486 58.7447 24.2531 58.9367 24.2718 59.0076C24.2768 59.0259 24.5386 59.158 24.6047 59.2118C25.233 59.7169 25.238 60.9667 24.6658 61.5133C24.4825 61.6882 23.8716 61.9621 23.6272 61.9621H21.3419C21.3419 61.9621 21.2796 61.9058 21.2796 61.9009V56.4016L21.2783 56.3992ZM21.8805 56.826C21.8668 56.8468 21.8182 56.8761 21.8182 56.8871V58.7202C21.8182 58.7202 21.8755 58.7814 21.8805 58.7814H23.5424C23.5985 58.7814 23.889 58.653 23.9514 58.6114C24.4613 58.2751 24.4351 57.2295 23.8653 56.9581C23.8217 56.9373 23.4813 56.826 23.4602 56.826H21.8805ZM21.8805 59.2705C21.8668 59.2913 21.8182 59.3207 21.8182 59.3317V61.4093C21.8182 61.4093 21.8755 61.4705 21.8805 61.4705H23.5424C23.7295 61.4705 24.1421 61.2736 24.2693 61.1244C24.571 60.771 24.5972 59.9101 24.2693 59.5762C24.1521 59.4564 23.7432 59.2705 23.5836 59.2705H21.8793H21.8805Z" fill="white"></path><path d="M39.1069 51.7144C39.0807 51.7987 38.5608 51.8366 38.5671 51.674L38.5858 46.1515C38.6419 46.072 38.9772 46.0903 39.0246 46.2151L41.9557 50.5526C42.0492 50.5697 42.0131 50.5123 42.0181 50.4523C42.1191 49.0815 41.9146 47.6348 41.9782 46.2566C42.0193 46.0267 42.5629 46.0549 42.5617 46.2933V51.6336C42.5741 51.8538 42.1477 51.8159 42.0605 51.6716L39.2266 47.4428L39.1094 47.334V51.7131L39.1069 51.7144Z" fill="white"></path><path d="M66.9918 51.7144C66.9656 51.7975 66.4071 51.8391 66.4096 51.674L66.4295 46.1943C66.4856 46.1331 66.5592 46.1209 66.6365 46.1123C67.0616 46.0647 67.9019 46.083 68.3433 46.1123C69.0988 46.1613 69.8406 46.3789 70.0389 47.1799C70.2084 47.8635 70.1037 48.7171 69.4292 49.0949C69.3245 49.1536 69.1025 49.1818 69.1063 49.271L70.3979 51.7144C70.378 51.811 69.8232 51.8012 69.7434 51.7254L68.5278 49.3322H66.9905V51.7156L66.9918 51.7144ZM66.9506 48.8015C66.9506 48.8761 68.3433 48.8528 68.4692 48.8443C69.1562 48.7941 69.5127 48.5043 69.5289 47.806C69.5651 46.3447 68.3707 46.6577 67.3022 46.6455C67.2349 46.6455 66.9506 46.5587 66.9506 46.7042V48.8027V48.8015Z" fill="white"></path><path d="M34.4515 56.3992C34.4702 56.3356 34.5737 56.3038 34.6361 56.2953C35.3205 56.2048 36.7655 56.3038 37.3727 56.6315C38.6955 57.3445 38.7229 60.0189 37.9761 61.1171C37.7006 61.5218 37.0099 61.9596 36.5087 61.9596H34.5139C34.5139 61.9596 34.4515 61.9034 34.4515 61.8985V56.3992ZM35.055 56.826C35.0412 56.8468 34.9926 56.8761 34.9926 56.8871V61.4093C34.9926 61.4093 35.05 61.4705 35.055 61.4705H36.2606C38.2604 61.4705 38.3264 57.7358 37.0024 57.0363C36.9238 56.9947 36.4052 56.826 36.3441 56.826H35.0562H35.055Z" fill="white"></path><path d="M21.2783 46.2151C21.302 46.1393 21.4741 46.1172 21.5464 46.1111C22.4154 46.0329 23.8479 46.0598 24.5199 46.6626C25.5335 47.5725 25.5422 50.3398 24.5286 51.246C24.2955 51.4551 23.5998 51.7755 23.2931 51.7755H21.3394C21.3394 51.7755 21.2771 51.7193 21.2771 51.7144V46.2151H21.2783ZM21.8805 46.6419C21.8668 46.6626 21.8182 46.692 21.8182 46.703V51.1836C21.8182 51.3414 22.1286 51.246 22.176 51.2484C23.0749 51.2961 23.9202 51.3402 24.4027 50.4572C24.8852 49.5743 24.8503 47.6092 24 46.9671C23.8566 46.8583 23.3754 46.6419 23.2108 46.6419H21.8805Z" fill="white"></path><path d="M83.1173 56.3992C83.1734 56.2182 83.5749 56.3405 83.6783 56.3381C84.9775 56.3002 86.3327 56.2084 86.8887 57.6307C87.2889 58.6554 87.2528 60.6976 86.3364 61.4693C86.1257 61.6466 85.4786 61.9597 85.2156 61.9597H83.1796C83.1796 61.9597 83.1173 61.9034 83.1173 61.8985V56.3992ZM85.0498 56.826C84.677 56.7795 84.1172 56.826 83.7195 56.826C83.601 56.826 83.702 57.0779 83.6995 57.1317C83.6347 58.5124 83.6621 59.9015 83.6559 61.2883C83.6646 61.4509 83.7457 61.4583 83.8841 61.4717C85.6145 61.638 86.5072 61.0963 86.5509 59.3378C86.577 58.2873 86.3377 56.9862 85.0498 56.826Z" fill="white"></path><path d="M77.4645 56.3992C77.4932 56.3087 77.8198 56.3063 77.8822 56.398C78.8384 57.7982 79.761 59.2228 80.7248 60.6181C80.7609 60.6707 80.7834 60.7734 80.7896 60.7783C80.8208 60.8016 80.9143 60.7392 80.9143 60.7172V56.3992C80.9143 56.3087 81.413 56.3087 81.413 56.3992V61.9193C81.413 61.9425 81.0315 62.0073 80.9791 61.8753L78.1228 57.6282L77.9632 57.5194V61.8985C77.9632 61.989 77.4645 61.989 77.4645 61.8985V56.3992Z" fill="white"></path><path d="M63.1481 56.3381C63.5769 56.3699 64.2078 56.5142 64.4983 56.848C64.9558 57.3738 64.9334 58.6407 64.3948 59.1079C64.2115 59.2669 63.9572 59.2987 63.7951 59.4589L65.0805 61.9584C64.9334 61.9364 64.623 62.0086 64.5182 61.9181L63.2328 59.5114C63.1007 59.4124 62.9473 59.5102 62.8139 59.5139C62.4237 59.5237 62.0409 59.4552 61.6719 59.5139V61.8973C61.6719 61.9963 61.4874 61.9242 61.4437 61.9254C61.3901 61.9278 61.1732 62.0012 61.1732 61.8973V56.398C61.1732 56.398 61.2305 56.3368 61.2355 56.3368C61.8464 56.3368 62.5496 56.2928 63.1468 56.3368L63.1481 56.3381ZM63.3563 56.826C62.9049 56.7697 62.2167 56.826 61.7355 56.826C61.7305 56.826 61.6731 56.8822 61.6731 56.8871V58.9648C61.6731 58.9648 61.7305 59.026 61.7355 59.026H63.2727C63.3026 59.026 63.5819 58.9783 63.6281 58.966C64.2951 58.7875 64.3724 57.8764 64.1579 57.3433C64.0382 57.0461 63.6667 56.8639 63.3563 56.826Z" fill="white"></path><path d="M28.5718 56.3381C29.7974 56.4286 30.3298 57.0155 30.2126 58.2311C30.1577 58.7985 29.7937 59.2693 29.2164 59.394V59.4515L30.5031 61.8973C30.4806 62.011 29.9931 61.9144 29.8996 61.8789L28.6716 59.5383C28.5232 59.4258 28.3861 59.5163 28.239 59.5175C27.8537 59.5212 27.4672 59.4833 27.0944 59.5151V61.8985C27.0944 62.0024 26.8987 61.9217 26.8613 61.923C26.8002 61.9242 26.5957 61.9976 26.5957 61.8985V56.3992C26.5957 56.3992 26.6531 56.3381 26.6581 56.3381C27.269 56.3381 27.9722 56.294 28.5694 56.3381H28.5718ZM27.158 56.826C27.1443 56.8468 27.0957 56.8761 27.0957 56.8871V58.9648C27.0957 58.9648 27.153 59.0259 27.158 59.0259H28.6953C28.7277 59.0259 29.002 58.9783 29.0506 58.966C29.8086 58.7716 29.8772 57.3738 29.2713 56.996C29.2064 56.9556 28.8761 56.826 28.8212 56.826H27.1593H27.158Z" fill="white"></path><path d="M45.6723 56.3381C45.7484 56.3197 45.8194 56.3014 45.8992 56.2953C46.6086 56.2402 48.1633 56.2194 48.849 56.3014C49.1233 56.3344 48.955 56.6169 48.9974 56.8272H46.2757C46.2757 56.8272 46.2134 56.8835 46.2134 56.8884V58.6811C46.2134 58.6811 46.2708 58.7422 46.2757 58.7422H48.6446C48.7805 58.7422 48.7867 59.2718 48.6857 59.2718H46.2757C46.2757 59.2718 46.2134 59.328 46.2134 59.3329V61.3702C46.2134 61.3702 46.2708 61.4314 46.2757 61.4314H48.8939C49.0759 61.4314 48.9725 61.83 48.9974 61.9609H45.6723V56.3393V56.3381Z" fill="white"></path><path d="M75.5532 48.8418L75.6704 48.7733L77.8996 46.1515C78.0044 46.0989 78.6689 46.0463 78.5679 46.2359L76.4334 48.6657L78.7948 51.7755H78.1502L76.0706 49.1255C76.0096 49.1145 75.9896 49.1341 75.9485 49.1696C75.8899 49.2209 75.5657 49.6184 75.5532 49.6783L75.547 51.7083C75.5071 51.8269 75.0121 51.7902 75.0121 51.7144V46.1539C75.0121 46.127 75.552 46.061 75.552 46.1747V48.843L75.5532 48.8418Z" fill="white"></path><path d="M31.9493 46.0818L33.9516 51.7119C33.9279 51.8085 33.4155 51.8024 33.3507 51.7364C33.206 51.5921 32.9155 50.2885 32.8258 50.2347L30.6714 50.2469L30.1527 51.7351C30.0941 51.8036 29.583 51.8097 29.553 51.7095L31.5117 46.1417C31.5977 45.9998 31.8159 46.0047 31.9505 46.0818H31.9493ZM30.8359 49.7382H32.6026C32.6126 49.7382 32.6811 49.6758 32.6587 49.644L31.771 47.0491L31.6688 47.153C31.493 47.9357 31.0105 48.8015 30.8459 49.5645C30.8335 49.622 30.8322 49.6795 30.8359 49.7382Z" fill="white"></path><path d="M61.1832 51.7241L60.6757 50.2469L58.5201 50.2335C58.4478 50.2787 58.1361 51.6153 57.9952 51.7351C57.9192 51.8 57.4192 51.8097 57.3943 51.7119L59.4664 46.05C59.6222 46.0047 59.8043 46.028 59.8654 46.1943C60.389 47.9601 61.2368 49.7223 61.743 51.482C61.7629 51.5505 61.834 51.7082 61.7567 51.7572C61.6894 51.8 61.238 51.789 61.1832 51.7254V51.7241ZM58.7433 49.7382H60.5099L59.6571 47.0491L59.5225 47.1616L58.6859 49.6428C58.6672 49.6758 58.7233 49.7321 58.742 49.737L58.7433 49.7382Z" fill="white"></path><path d="M86.5247 46.8461C86.481 46.8889 85.9399 46.6761 85.829 46.6529C84.8465 46.4499 83.5387 46.5061 83.6559 47.8048C83.7319 48.6547 84.7131 48.5239 85.3378 48.6413C86.3451 48.8308 86.9012 49.2527 86.8177 50.3301C86.7192 51.6116 85.425 51.9467 84.3067 51.8513C84.1259 51.8354 83.227 51.6581 83.1273 51.5615C83.0587 51.4955 83.0325 51.076 83.1435 51.0442C83.2183 51.0234 83.6534 51.2069 83.7731 51.2338C84.7069 51.4478 86.1756 51.4453 86.2354 50.2078C86.2965 48.9409 85.142 49.2026 84.2705 48.9947C83.4988 48.81 83.05 48.4212 83.0737 47.5982C83.116 46.1136 84.6695 45.9008 85.8701 46.1234C86.3763 46.2175 86.6194 46.2652 86.5247 46.8461Z" fill="white"></path><path d="M53.8597 56.826H51.158V58.741H53.4645C53.6752 58.741 53.6366 59.2705 53.5481 59.2705H51.158V61.8985C51.158 61.9731 50.5721 62.0306 50.5758 61.8582L50.597 56.3784L50.7616 56.2953H53.7563C53.9458 56.3307 53.8311 56.678 53.8597 56.8272V56.826Z" fill="white"></path></g><defs><clipPath id="clip0_95_2785"><rect width="96" height="62" fill="white"></rect></clipPath></defs></svg>